<svg width="240" height="240" viewBox="0 0 240 240" fill="none" xmlns="http://www.w3.org/2000/svg">
<rect width="240" height="240" rx="120" fill="#00238A"/>
<path d="M75.0587 145.753V174.154C70.5152 175.76 65.6527 176.253 60.8793 175.591C56.106 174.929 51.5612 173.131 47.6266 170.348C43.6919 167.566 40.4823 163.88 38.2672 159.6C36.052 155.32 34.896 150.572 34.8962 145.753C34.8962 140.208 39.3925 135.713 44.9375 135.713C50.4824 135.713 54.9787 140.208 54.9787 145.753C54.9787 148.415 56.0365 150.969 57.9193 152.852C59.8022 154.735 62.3559 155.793 65.0187 155.793C67.6815 155.793 70.2352 154.735 72.1181 152.852C74.0009 150.969 75.0587 148.415 75.0587 145.753Z" fill="white"/>
<path d="M143.362 95.5476C147.189 95.5476 149.581 99.6902 147.667 103.004L135.306 124.415L133.106 128.231L128.778 135.713L122.984 145.753L115.702 158.375C113.789 161.69 109.005 161.691 107.091 158.376L99.8015 145.753L105.593 135.713L111.398 125.67L122.865 105.809L127.353 98.0335C128.241 96.4952 129.882 95.5476 131.658 95.5476H143.362Z" fill="url(#paint0_linear_846_105547)"/>
<path d="M111.397 125.67L105.593 135.713L99.7989 145.753L95.1406 137.679L94.0069 135.713L91.5066 131.394C91.2954 131.003 91.0745 130.62 90.8342 130.239L90.7735 130.129L75.0581 102.898V100.519C75.0581 97.7732 77.2837 95.5476 80.0292 95.5476H94.0069L95.1406 97.5163L111.397 125.67Z" fill="white"/>
<path d="M72.2629 76.2687C72.2629 83.3627 78.0137 89.1134 85.1076 89.1134C92.2015 89.1134 97.9523 83.3627 97.9523 76.2687C97.9523 69.1748 92.2015 63.4241 85.1076 63.4241C78.0137 63.4241 72.2629 69.1748 72.2629 76.2687Z" fill="url(#paint1_linear_846_105547)"/>
<path d="M166.012 105.461L166.012 165.848C166.012 171.375 170.493 175.856 176.021 175.856C181.549 175.856 186.03 171.375 186.03 165.848L186.03 105.461C186.03 99.9332 181.549 95.4521 176.021 95.4521C170.493 95.4521 166.012 99.9332 166.012 105.461Z" fill="url(#paint2_linear_846_105547)"/>
<path d="M146.11 125.782C148.653 121.377 155.386 123.182 155.386 128.267V175.877H135.306V144.499L140.374 135.714L146.11 125.782Z" fill="url(#paint3_linear_846_105547)"/>
<path d="M95.1412 137.681V145.755C95.1475 150.77 93.8956 155.707 91.5 160.113L90.7718 161.358C87.1636 167.312 81.6081 171.835 75.0466 174.161V102.9L90.7621 130.131L90.8228 130.241L91.4952 131.396L93.9955 135.715L95.1412 137.681Z" fill="url(#paint4_linear_846_105547)"/>
<path d="M196.133 95.5476H176.053C170.508 95.5476 166.012 100.043 166.012 105.589C166.012 111.134 170.508 115.63 176.053 115.63H196.133C201.679 115.63 206.175 111.134 206.175 105.589C206.175 100.043 201.679 95.5476 196.133 95.5476Z" fill="white"/>
<defs>
<linearGradient id="paint0_linear_846_105547" x1="125.887" y1="95.5476" x2="125.887" y2="165.835" gradientUnits="userSpaceOnUse">
<stop stop-color="#4D77FF"/>
<stop offset="1" stop-color="white"/>
</linearGradient>
<linearGradient id="paint1_linear_846_105547" x1="85.1076" y1="63.4241" x2="85.1076" y2="89.1134" gradientUnits="userSpaceOnUse">
<stop stop-color="#4D77FF"/>
<stop offset="1" stop-color="white"/>
</linearGradient>
<linearGradient id="paint2_linear_846_105547" x1="186.03" y1="95.4521" x2="186.03" y2="175.856" gradientUnits="userSpaceOnUse">
<stop stop-color="#4D77FF"/>
<stop offset="1" stop-color="white"/>
</linearGradient>
<linearGradient id="paint3_linear_846_105547" x1="145.346" y1="109.718" x2="145.346" y2="175.877" gradientUnits="userSpaceOnUse">
<stop stop-color="#4D77FF"/>
<stop offset="1" stop-color="white"/>
</linearGradient>
<linearGradient id="paint4_linear_846_105547" x1="85.0939" y1="102.9" x2="85.0939" y2="174.161" gradientUnits="userSpaceOnUse">
<stop stop-color="#4D77FF"/>
<stop offset="1" stop-color="white"/>
</linearGradient>
</defs>
</svg>
